<svg width="32" height="32" viewBox="0 0 32 32" fill="none" xmlns="http://www.w3.org/2000/svg">
<path d="M26.1021 8.24817C25.4576 8.36352 24.8255 8.50997 24.192 8.66413C24.1114 8.6836 24.0308 8.70307 23.9478 8.72313C23.6116 8.80443 23.2755 8.88598 22.9397 8.96838C21.9405 9.21235 20.9354 9.43647 19.9303 9.6613C19.7326 9.70558 19.7326 9.70558 19.531 9.75075C19.4052 9.77858 19.2795 9.80641 19.15 9.83509C18.8999 9.89335 18.6531 9.96223 18.4085 10.0359C17.7268 10.171 17.0468 10.1498 16.3501 10.146C16.2065 10.1468 16.0628 10.1476 15.9148 10.1484C14.6158 10.146 13.4076 9.9858 12.1643 9.66504C11.978 9.61856 11.7916 9.57226 11.6052 9.52611C11.5135 9.50336 11.4218 9.4806 11.3273 9.45716C10.3914 9.2292 9.44427 9.03618 8.49849 8.84205C8.38635 8.81899 8.27421 8.79594 8.15868 8.77218C7.93925 8.7272 7.71975 8.6825 7.50015 8.63813C7.07502 8.55122 6.66262 8.46199 6.2489 8.33916C5.74203 8.19603 5.25922 8.18398 4.73285 8.24817C4.38256 8.43498 4.19897 8.55433 4.01656 8.87211C3.98455 9.24159 3.98781 9.52823 4.12848 9.87952C4.77822 10.5141 5.90952 10.6566 6.82202 10.8414C7.6784 11.0212 8.53021 11.205 9.37379 11.4264C9.45268 11.447 9.53157 11.4677 9.61285 11.489C9.77209 11.5307 9.93132 11.5725 10.0905 11.6142C10.5666 11.7376 11.0445 11.8553 11.5227 11.9723C11.6144 11.9951 11.7061 12.0179 11.8005 12.0414C12.1613 12.1293 12.4742 12.1998 12.8508 12.1998C12.8494 12.318 12.848 12.4363 12.8466 12.5581C12.8407 13.2906 12.8355 14.0173 12.9105 14.7476C13.0903 16.7581 13.1527 18.7681 12.2291 20.6507C11.7863 21.5562 11.4291 22.4881 11.0601 23.4178C10.9514 23.6903 10.8427 23.9628 10.7338 24.2353C10.6633 24.4121 10.5929 24.5889 10.5227 24.7657C10.3659 25.1601 10.2074 25.5537 10.0413 25.9453C9.98726 26.0733 9.93316 26.2013 9.87743 26.3332C9.83027 26.4427 9.7831 26.5522 9.7345 26.6651C9.53072 27.2389 9.51047 27.7542 9.76924 28.3118C10.1123 28.6519 10.4046 28.8107 10.9183 28.8903C11.5881 28.7988 12.0841 28.5197 12.4844 28.0448C12.7435 27.6772 12.9248 27.3082 13.0933 26.9051C13.1421 26.7913 13.1421 26.7913 13.192 26.6752C13.298 26.4281 13.4027 26.1806 13.5074 25.933C13.6553 25.5866 13.8038 25.2403 13.9522 24.894C13.9896 24.8066 14.0269 24.7192 14.0654 24.6292C14.3146 24.0475 14.5701 23.4683 14.8308 22.8905C14.8643 22.8161 14.8978 22.7417 14.9324 22.665C15.0605 22.3807 15.1887 22.0964 15.3185 21.8126C15.4066 21.6198 15.4936 21.4267 15.5807 21.2336C15.6301 21.1252 15.6794 21.0168 15.7303 20.9051C15.8353 20.623 15.8353 20.623 15.8353 20.2071C15.9141 20.2071 15.9929 20.2071 16.0741 20.2071C16.1037 20.299 16.1037 20.299 16.134 20.3928C16.3657 21.0899 16.649 21.7612 16.9559 22.4356C17.0061 22.5469 17.0563 22.6582 17.1081 22.7729C17.2678 23.1266 17.4283 23.4802 17.5887 23.8337C17.6941 24.0669 17.7994 24.3001 17.9047 24.5332C18.1105 24.989 18.3173 25.4444 18.5248 25.8996C18.7176 26.323 18.9068 26.7473 19.0929 27.1729C19.1569 27.3172 19.1569 27.3172 19.2221 27.4645C19.3013 27.6431 19.3793 27.8222 19.456 28.0017C19.7799 28.7268 19.7799 28.7268 20.2524 28.9423C20.7323 29.0436 21.1597 29.0167 21.6006 28.8204C22.0565 28.5397 22.4097 28.2935 22.5206 27.7984C22.5668 27.19 22.4269 26.7512 22.1849 26.193C22.1087 26.0108 22.0327 25.8286 21.9569 25.6463C21.9142 25.5443 21.8716 25.4424 21.8276 25.3374C21.664 24.9395 21.5062 24.5401 21.3497 24.14C21.3208 24.0662 21.2918 23.9923 21.262 23.9162C21.1453 23.618 21.0287 23.3198 20.9125 23.0215C20.8302 22.8105 20.7474 22.5997 20.6646 22.3888C20.5929 22.2053 20.5929 22.2053 20.5197 22.018C20.3152 21.5271 20.0765 21.0526 19.8236 20.5792C19.0746 19.0402 19.2146 17.39 19.2482 15.753C19.2556 15.3514 19.2588 14.9498 19.2624 14.5481C19.27 13.7653 19.2821 12.9826 19.2974 12.1998C19.3981 12.1782 19.3981 12.1782 19.5009 12.1561C19.8105 12.0895 20.1201 12.0226 20.4296 11.9557C20.5352 11.933 20.6409 11.9103 20.7497 11.887C21.3953 11.7471 22.0333 11.5947 22.6699 11.4264C23.6274 11.1736 24.5952 10.9653 25.5696 10.7679C27.4295 10.3788 27.4295 10.3788 27.9077 9.82752C28.0368 9.41787 28.0292 9.17653 27.8928 8.76812C27.4159 8.13835 26.8934 8.1526 26.1021 8.24817Z" fill="#009BD8"/>
<path d="M19 5.83646C19 7.403 17.6569 8.67293 16 8.67293C14.3431 8.67293 13 7.403 13 5.83646C13 4.26993 14.3431 3 16 3C17.6569 3 19 4.26993 19 5.83646Z" fill="#009BD8"/>
</svg>
