<svg width="115" height="64" viewBox="0 0 115 64" fill="none" xmlns="http://www.w3.org/2000/svg">
<g clip-path="url(#clip0_3743_5182)">
<path d="M15.3328 9.4888H0V47.8868H15.3328C17.363 47.9024 19.3166 47.1129 20.7659 45.6911C22.2152 44.2694 23.042 42.3312 23.0652 40.3011V17.1919C23.0652 15.1514 22.2556 13.1943 20.8142 11.7502C19.3728 10.306 17.4172 9.49268 15.3768 9.4888M7.65905 40.3011V17.1919H11.5179C12.0194 17.1899 12.5164 17.2873 12.9801 17.4783C13.4438 17.6693 13.8651 17.9503 14.2198 18.3049C14.5744 18.6595 14.8553 19.0808 15.0463 19.5446C15.2374 20.0083 15.3347 20.5052 15.3328 21.0067V36.4275C15.3386 36.9341 15.2439 37.4368 15.054 37.9066C14.8642 38.3763 14.583 38.8036 14.2268 39.1639C13.8706 39.5242 13.4465 39.8102 12.979 40.0054C12.5115 40.2006 12.0099 40.3011 11.5033 40.3011H7.65905Z" fill="#0090D7"/>
<path d="M107.726 13.333C107.722 12.3224 108.117 11.3512 108.826 10.6311C109.536 9.91101 110.501 9.50041 111.511 9.4888H115.37V44.1306C115.37 45.1476 114.967 46.1232 114.249 46.8437C113.532 47.5642 112.557 47.9709 111.54 47.9748H107.726V13.333Z" fill="#0090D7"/>
<path d="M74.8298 30.4265C73.064 32.1906 70.8366 33.4212 68.4033 33.9772C68.796 34.4527 69.0686 35.0156 69.198 35.6185C69.3274 36.2214 69.3099 36.8466 69.1469 37.4413C68.984 38.0361 68.6803 38.5829 68.2616 39.0356C67.8429 39.4883 67.3215 39.8336 66.7413 40.0424C66.161 40.2513 65.5391 40.3175 64.9279 40.2354C64.3168 40.1534 63.7343 39.9255 63.2297 39.571C62.7251 39.2166 62.3132 38.7459 62.0287 38.1988C61.7443 37.6517 61.5956 37.0442 61.5952 36.4275V34.3H53.8335V44.1306C53.864 45.1375 54.2855 46.0928 55.0087 46.7941C55.7318 47.4953 56.6997 47.8872 57.707 47.8868H65.3807C67.4621 47.889 69.5054 47.3287 71.2944 46.2651C73.0835 45.2014 74.5517 43.674 75.544 41.8444C76.5362 40.0148 77.0155 37.951 76.9311 35.8713C76.8467 33.7917 76.2018 31.7735 75.0646 30.0303L74.7711 30.3238" fill="#0090D7"/>
<path d="M61.5365 21.0361C61.5356 20.3185 61.734 19.6147 62.1097 19.0033C62.4854 18.3919 63.0235 17.8968 63.6641 17.5734V9.4888H53.8335V23.1489H61.5219L61.5365 21.0361Z" fill="#0090D7"/>
<path d="M34.5978 24.6895V9.4888H30.8123C29.7953 9.48489 28.8181 9.88415 28.0949 10.5992C27.3716 11.3142 26.9612 12.2867 26.9534 13.3037V23.1783H30.8123C32.2366 23.144 33.6173 23.671 34.6565 24.6455" fill="#0090D7"/>
<path d="M50.0039 23.1489V13.333C49.9962 12.3133 49.5867 11.3378 48.8643 10.6181C48.1419 9.89841 47.1648 9.49263 46.1451 9.4888H42.3009V24.6895C43.3443 23.7217 44.7221 23.1958 46.1451 23.2223L50.0039 23.1489Z" fill="#0090D7"/>
<path d="M80.8456 47.8868H84.6751C85.1812 47.8887 85.6826 47.7907 86.1507 47.5984C86.6188 47.4061 87.0443 47.1232 87.4028 46.766C87.7614 46.4089 88.0458 45.9844 88.24 45.5171C88.4341 45.0497 88.534 44.5486 88.534 44.0426V34.3H80.8456V47.8868Z" fill="#0090D7"/>
<path d="M88.4753 23.1489V13.333C88.4747 11.901 89.0266 10.524 90.0159 9.4888H88.4753C86.445 9.50813 84.5045 10.3282 83.0758 11.7708C81.647 13.2133 80.8455 15.1615 80.8456 17.1919V24.6895C81.8845 23.7239 83.2569 23.1981 84.6751 23.2223L88.4753 23.1489Z" fill="#0090D7"/>
<path d="M96.2957 34.3H96.1784V44.1306C96.1784 45.1515 96.5829 46.1308 97.3034 46.8541C98.0239 47.5773 99.0017 47.9856 100.023 47.9895H103.867V30.3825C103.02 31.6134 101.891 32.6235 100.574 33.3281C99.2565 34.0327 97.7895 34.4113 96.2957 34.4321" fill="#0090D7"/>
<path d="M65.3807 9.4888V17.1919C66.3739 17.1953 67.3276 17.5814 68.0432 18.2701C68.7589 18.9588 69.1815 19.8968 69.2231 20.8892C69.2647 21.8815 68.922 22.8516 68.2665 23.5977C67.6109 24.3439 66.693 24.8085 65.7035 24.8949H46.1451C45.6409 24.893 45.1414 24.9906 44.6751 25.1822C44.2088 25.3738 43.7849 25.6556 43.4277 26.0114C43.0705 26.3672 42.7871 26.79 42.5938 27.2556C42.4004 27.7212 42.3009 28.2203 42.3009 28.7245V40.3011H38.398C37.3784 40.3011 36.4006 39.8961 35.6797 39.1751C34.9588 38.4542 34.5538 37.4764 34.5538 36.4569V28.7245C34.5538 27.7088 34.1503 26.7348 33.4321 26.0166C32.714 25.2984 31.7399 24.8949 30.7243 24.8949H26.8947V40.3011C26.9179 42.3288 27.7397 44.2655 29.1818 45.6912C30.6239 47.1168 32.57 47.9163 34.5978 47.9161H42.3009C44.3438 47.9161 46.3032 47.1045 47.7478 45.6599C49.1924 44.2153 50.0039 42.256 50.0039 40.2131V32.51H65.3807C68.2581 32.3148 70.9586 31.0514 72.9523 28.9676C74.9461 26.8839 76.0891 24.1302 76.1571 21.2471C76.2251 18.364 75.2131 15.5595 73.3198 13.3841C71.4265 11.2087 68.7885 9.81937 65.9236 9.4888H65.3807Z" fill="#38B6AB"/>
<path d="M63.2972 34.2413V36.3688C63.2972 36.9059 63.5106 37.4209 63.8903 37.8006C64.27 38.1803 64.785 38.3937 65.3221 38.3937C65.8755 38.4021 66.4107 38.1959 66.8155 37.8185C67.2203 37.441 67.4633 36.9215 67.4936 36.3688C67.5216 35.8341 67.3366 35.31 66.9792 34.9112C66.6217 34.5125 66.1208 34.2716 65.5862 34.2413H63.2972Z" fill="#38B6AB"/>
<path d="M39.0729 49.4714V51.4815C39.07 51.8832 39.1867 52.2767 39.408 52.612C39.6294 52.9472 39.9455 53.209 40.3161 53.364C40.6866 53.5191 41.095 53.5604 41.4891 53.4828C41.8832 53.4051 42.2454 53.212 42.5294 52.9279C42.8135 52.6439 43.0066 52.2817 43.0843 51.8876C43.1619 51.4935 43.1206 51.0851 42.9655 50.7146C42.8105 50.344 42.5487 50.0279 42.2135 49.8065C41.8782 49.5852 41.4848 49.4685 41.083 49.4714H39.0729Z" fill="#38B6AB"/>
<path d="M33.38 49.4714V51.4815C33.3771 51.8826 33.4934 52.2755 33.7141 52.6104C33.9348 52.9453 34.25 53.2071 34.6197 53.3627C34.9894 53.5182 35.397 53.5604 35.7907 53.4839C36.1845 53.4074 36.5466 53.2158 36.8313 52.9332C37.1159 52.6506 37.3102 52.2898 37.3895 51.8967C37.4689 51.5035 37.4296 51.0956 37.2768 50.7248C37.124 50.3539 36.8645 50.0368 36.5312 49.8137C36.1979 49.5905 35.8059 49.4714 35.4048 49.4714H33.38Z" fill="#38B6AB"/>
<path d="M80.8456 28.7245C80.8456 27.7088 81.249 26.7348 81.9672 26.0166C82.6854 25.2984 83.6594 24.8949 84.6751 24.8949H92.4369C93.4584 24.9689 94.4674 24.634 95.242 23.964C96.0165 23.294 96.4932 22.3437 96.5672 21.3222C96.6411 20.3007 96.3062 19.2917 95.6362 18.5171C94.9662 17.7425 94.0159 17.2658 92.9944 17.1919H90.3534V13.333C90.3526 12.3384 90.7374 11.3822 91.4269 10.6653C92.1164 9.94847 93.0569 9.52676 94.0508 9.4888H96.1784C98.2149 9.48879 100.168 10.2968 101.61 11.7355C103.051 13.1742 103.863 15.126 103.867 17.1625V24.8949C103.863 26.9328 103.052 28.8862 101.611 30.3272C100.17 31.7682 98.2163 32.5795 96.1784 32.5833H80.8456V28.7245Z" fill="#38B6AB"/>
</g>
<defs>
<clipPath id="clip0_3743_5182">
<rect width="115" height="64" fill="white"/>
</clipPath>
</defs>
</svg>
